<svg id="Layer_1" data-name="Layer 1" xmlns="http://www.w3.org/2000/svg" viewBox="0 0 300 300"><defs><style>.cls-1{fill:#fff;}.cls-2{fill:#474f60;}</style></defs><title>Artboard 4</title><rect class="cls-1" width="300" height="300"/><path class="cls-2" d="M57.18,203.79a17.68,17.68,0,0,1,5.1-12.56,17,17,0,0,1,12.84-5.38,15.88,15.88,0,0,1,12.14,5.38,19.05,19.05,0,0,1,0,25.67A16.3,16.3,0,0,1,75.12,222a17.43,17.43,0,0,1-12.84-5.1A17.78,17.78,0,0,1,57.18,203.79Z"/><path class="cls-2" d="M209.34,77.26q9.47,0,14,4.56c3,3.05,4.57,6.41,4.57,10.11a9.62,9.62,0,0,1-.65,3.58,8.78,8.78,0,0,1-3.1,3.43,67.8,67.8,0,0,1-6.85,4.23q-4.4,2.44-12.22,6a30,30,0,0,0-7-6.19,16.31,16.31,0,0,0-9-2.61,17.61,17.61,0,0,0-10.1,3.1A26.82,26.82,0,0,0,171.2,112a45.56,45.56,0,0,0-5,12.39,58.14,58.14,0,0,0-1.79,14.51v56.07q0,7.17,7.5,10.6t21.51,5.38a3.63,3.63,0,0,1,3.26,3.91A28.37,28.37,0,0,1,196,220c-2.4-.21-5.38-.38-9-.49s-7.33-.27-11.24-.48-8-.39-12.11-.49-8-.17-11.51-.17q-8.91,0-18.4.49t-18,1.14a27.52,27.52,0,0,1-.65-5.21c0-2.17,1-3.48,2.94-3.91a53.68,53.68,0,0,0,13.2-3.92q5.7-2.59,5.7-7.49V116.7a67.06,67.06,0,0,0-.81-11.41A18.33,18.33,0,0,0,133.39,98a11.28,11.28,0,0,0-5.71-4.08,45.36,45.36,0,0,0-9.61-1.95q-4.25-.66-4.24-4.24a19,19,0,0,1,.65-4.57q4.23,0,11.9-.49T139,81.49q7.26-1.29,12.7-2.77a35,35,0,0,1,8.09-1.46c3.07,0,4.62,1.63,4.62,4.89V104a139.56,139.56,0,0,1,21-19.07A39.86,39.86,0,0,1,209.34,77.26Z"/></svg>